<svg id="SvgjsSvg1031" width="288" height="288" xmlns="http://www.w3.org/2000/svg" version="1.1" xmlns:xlink="http://www.w3.org/1999/xlink" xmlns:svgjs="http://svgjs.com/svgjs"><defs id="SvgjsDefs1032"></defs><g id="SvgjsG1033"><svg xmlns="http://www.w3.org/2000/svg" viewBox="0 0 48 48" width="288" height="288"><path fill="#7c3aed" fill-rule="evenodd" d="M48 23.977C48 37.248 37.248 48 23.978 48 10.752 48 0 37.248 0 23.977 0 10.752 10.752 0 23.978 0 37.248 0 48 10.752 48 23.977z" clip-rule="evenodd" class="color0c0c0c svgShape"></path><path fill="#f4f4f4" d="M33.899 21.672a.504.504 0 0 1-.354-.146l-6.364-6.364a.5.5 0 0 1 0-.707l5.303-5.304a.5.5 0 0 1 .707.707l-4.95 4.95 5.657 5.657 4.95-4.95a.5.5 0 0 1 .707.707l-5.303 5.304a.5.5 0 0 1-.353.146z" class="colorfff svgShape"></path><path fill="#f4f4f4" d="M36.728 18.843a.502.502 0 0 1-.354-.146l-6.364-6.363a.5.5 0 0 1 0-.707l2.829-2.829a.5.5 0 0 1 .707.707l-2.475 2.476 5.657 5.656 2.475-2.475a.5.5 0 0 1 .707.707l-2.828 2.828a.502.502 0 0 1-.354.146zM26.829 17.429a.5.5 0 0 1-.354-.853l1.061-1.061a.5.5 0 0 1 .707.707l-1.061 1.061a.5.5 0 0 1-.353.146z" class="colorfff svgShape"></path><circle cx="33.899" cy="18.343" r=".5" fill="#f4f4f4" transform="rotate(-45.001 33.9 18.344)" class="colorfff svgShape"></circle><path fill="#f4f4f4" d="M28.243 27.328a.5.5 0 0 1-.354-.853l3.536-3.535c.194-.195.194-.512 0-.707s-.195-.512 0-.707l1.061-1.061-4.243-4.243-1.061 1.061a.5.5 0 0 1-.707-.707l1.414-1.414a.514.514 0 0 1 .707 0l4.95 4.95a.5.5 0 0 1 0 .707l-1.121 1.121a1.506 1.506 0 0 1-.292 1.707l-3.536 3.535a.502.502 0 0 1-.354.146z" class="colorfff svgShape"></path><path fill="#f4f4f4" d="M22.586 18.843a.5.5 0 0 1-.354-.853L24 16.222a.502.502 0 0 1 .512-.121l1.828.609.465-.465a.5.5 0 0 1 .707.707l-.684.684a.5.5 0 0 1-.512.121l-1.828-.609-1.549 1.549a.498.498 0 0 1-.353.146zM15.161 38.996a.5.5 0 0 1-.354-.853l4.95-4.95-5.657-5.657-4.95 4.95a.5.5 0 0 1-.707-.707l5.303-5.304a.514.514 0 0 1 .707 0l6.364 6.364a.5.5 0 0 1 0 .707l-5.303 5.304a.498.498 0 0 1-.353.146z" class="colorfff svgShape"></path><path fill="#f4f4f4" d="M14.808 39.35a.5.5 0 0 1-.354-.853l2.475-2.476-5.657-5.656-2.475 2.475a.5.5 0 0 1-.707-.707l2.828-2.828a.5.5 0 0 1 .707 0l6.364 6.363a.5.5 0 0 1 0 .707l-2.829 2.829a.496.496 0 0 1-.352.146zM20.111 32.632a.5.5 0 0 1-.354-.853l1.061-1.061a.5.5 0 0 1 .707.707l-1.061 1.061a.498.498 0 0 1-.353.146z" class="colorfff svgShape"></path><circle cx="14.101" cy="29.657" r=".5" fill="#f4f4f4" transform="rotate(-45.001 14.1 29.657)" class="colorfff svgShape"></circle><path fill="#f4f4f4" d="M23.646 29.097a.5.5 0 0 1-.354-.853l4.596-4.597a.5.5 0 0 0 0-.707.512.512 0 0 0-.707 0l-1.415 1.414a.5.5 0 0 1-.707-.707l1.415-1.414c.565-.566 1.554-.566 2.121 0a1.501 1.501 0 0 1 0 2.121L24 28.95a.5.5 0 0 1-.354.147z" class="colorfff svgShape"></path><path fill="#f4f4f4" d="M25.414 24.5a.5.5 0 0 1-.354-.853l1.415-1.414a.5.5 0 0 0-.707-.707l-1.414 1.414a.5.5 0 0 1-.707-.707l1.414-1.414a1.5 1.5 0 0 1 2.122 2.121l-1.415 1.414a.502.502 0 0 1-.354.146z" class="colorfff svgShape"></path><path fill="#f4f4f4" d="M24 23.086a.5.5 0 0 1-.354-.853l1.414-1.414a.497.497 0 0 0 0-.707.514.514 0 0 0-.708 0l-1.414 1.414a.5.5 0 0 1-.707-.707l1.414-1.414c.566-.566 1.555-.566 2.122 0 .283.282.438.658.439 1.06 0 .4-.156.778-.439 1.062l-1.414 1.414a.501.501 0 0 1-.353.145z" class="colorfff svgShape"></path><path fill="#f4f4f4" d="M19.757 32.985a.504.504 0 0 1-.354-.146l-4.95-4.95a.5.5 0 0 1 0-.707l1.121-1.121a1.506 1.506 0 0 1 .292-1.707l6.365-6.364c.565-.566 1.554-.566 2.121 0a1.502 1.502 0 0 1 0 2.122l-1.414 1.414a.5.5 0 0 1-.707-.707l1.414-1.414a.502.502 0 0 0 0-.708.512.512 0 0 0-.707 0l-6.365 6.364c-.194.195-.194.512 0 .707s.195.512 0 .707l-1.061 1.061 4.243 4.243 1.061-1.061a.5.5 0 0 1 .707.707l-1.414 1.414a.491.491 0 0 1-.352.146z" class="colorfff svgShape"></path><path fill="#f4f4f4" d="M23.646 31.925a.537.537 0 0 1-.158-.025l-1.828-.61-.465.465a.5.5 0 0 1-.707-.707l.684-.684a.5.5 0 0 1 .512-.121l1.828.609 3.679-3.679a1.232 1.232 0 0 0-1.562.147l-1.931 1.931a.5.5 0 0 1-.707-.707l1.931-1.931a2.235 2.235 0 0 1 3.155 0l.19.19a.5.5 0 0 1 0 .707L24 31.778a.497.497 0 0 1-.354.147zM32.132 39.703a.502.502 0 0 1-.354-.146l-5.303-5.304a.5.5 0 0 1 0-.707l6.364-6.364a.514.514 0 0 1 .707 0l5.303 5.304a.5.5 0 0 1-.707.707l-4.95-4.95-5.657 5.657 4.95 4.95a.5.5 0 0 1-.353.853z" class="colorfff svgShape"></path><path fill="#f4f4f4" d="M32.485 40.057a.502.502 0 0 1-.354-.146l-2.829-2.829a.5.5 0 0 1 0-.707l6.364-6.363a.5.5 0 0 1 .707 0l2.828 2.828a.5.5 0 0 1-.707.707l-2.475-2.475-5.657 5.656 2.475 2.476a.5.5 0 0 1-.352.853zM32.132 28.389a.502.502 0 0 1-.354-.146l-1.061-1.061a.5.5 0 0 1 .707-.707l1.061 1.061a.5.5 0 0 1-.353.853z" class="colorfff svgShape"></path><circle cx="29.657" cy="33.899" r=".5" fill="#f4f4f4" transform="rotate(-45.001 29.657 33.9)" class="colorfff svgShape"></circle><path fill="#f4f4f4" d="M27.536 33.692a.502.502 0 0 1-.354-.146l-1.121-1.12a1.539 1.539 0 0 1-1.708-.294l-.707-.707a.5.5 0 0 1 .707-.707l.707.707c.19.189.52.189.707 0a.516.516 0 0 1 .708 0l1.061 1.061 4.243-4.243-1.061-1.061a.5.5 0 0 1 .707-.707l1.414 1.414a.5.5 0 0 1 0 .707l-4.95 4.95a.494.494 0 0 1-.353.146z" class="colorfff svgShape"></path><path fill="#f4f4f4" d="M31.401 27.658a.502.502 0 0 1-.354-.146l-.684-.684a.5.5 0 0 1-.121-.512l.609-1.828-.135-.135a.5.5 0 0 1 .707-.707l.355.354a.5.5 0 0 1 .121.512l-.609 1.828.465.465a.5.5 0 0 1-.354.853zM14.808 20.965a.504.504 0 0 1-.354-.146l-5.303-5.304a.5.5 0 0 1 .707-.707l4.95 4.95 5.657-5.657-4.95-4.95a.5.5 0 0 1 .707-.707l5.303 5.304a.5.5 0 0 1 0 .707l-6.364 6.364a.503.503 0 0 1-.353.146z" class="colorfff svgShape"></path><path fill="#f4f4f4" d="M11.979 18.136a.502.502 0 0 1-.354-.146l-2.828-2.828a.5.5 0 0 1 .707-.707l2.475 2.475 5.657-5.656-2.475-2.476a.5.5 0 0 1 .707-.707l2.829 2.829a.5.5 0 0 1 0 .707l-6.364 6.363a.502.502 0 0 1-.354.146zM16.929 21.672a.502.502 0 0 1-.354-.146l-1.061-1.061a.5.5 0 0 1 .707-.707l1.061 1.061a.5.5 0 0 1-.353.853z" class="colorfff svgShape"></path><circle cx="18.343" cy="14.101" r=".5" fill="#f4f4f4" transform="rotate(-45.001 18.343 14.1)" class="colorfff svgShape"></circle><path fill="#f4f4f4" d="M16.929 21.672a.502.502 0 0 1-.354-.146l-1.414-1.414a.5.5 0 0 1 0-.707l4.95-4.95a.5.5 0 0 1 .707 0l1.121 1.12a1.537 1.537 0 0 1 1.708.294l.707.707a.5.5 0 0 1-.707.707l-.707-.707a.512.512 0 0 0-.707 0 .515.515 0 0 1-.708 0l-1.061-1.061-4.243 4.243 1.061 1.061a.5.5 0 0 1-.353.853z" class="colorfff svgShape"></path><path fill="#f4f4f4" d="M16.929 24.5a.502.502 0 0 1-.354-.146L16.222 24a.5.5 0 0 1-.121-.512l.609-1.828-.465-.465a.5.5 0 0 1 .707-.707l.684.684a.5.5 0 0 1 .121.512l-.609 1.828.135.135a.5.5 0 0 1-.354.853z" class="colorfff svgShape"></path></svg></g></svg>